<svg width="14" height="13" viewBox="0 0 14 13" fill="none" xmlns="http://www.w3.org/2000/svg">
<path fill-rule="evenodd" clip-rule="evenodd" d="M11.6765 1.62077C13.9939 3.11002 14.4378 6.26322 12.6159 8.93601C10.7887 11.6088 7.34095 12.8579 4.65704 11.9058C3.96026 11.6568 3.33573 11.3948 2.59766 11.0323L6.17448 5.79155L9.75131 0.550781C10.4894 0.913268 11.0778 1.23645 11.6765 1.62514V1.62077Z" fill="url(#paint0_linear_13318_480)"/>
<path style="mix-blend-mode:screen" fill-rule="evenodd" clip-rule="evenodd" d="M11.5954 2.32941C13.1954 3.3601 13.7374 5.6442 12.7877 7.64006C11.838 9.63592 9.73213 10.6273 7.94114 9.99841C7.47662 9.83681 7.05339 9.65775 6.55273 9.41319L8.41599 5.50444L10.2792 1.5957C10.7799 1.84027 11.1825 2.063 11.5954 2.32941Z" fill="url(#paint1_radial_13318_480)"/>
<path style="mix-blend-mode:multiply" fill-rule="evenodd" clip-rule="evenodd" d="M11.8313 2.22053C13.803 3.49142 14.2417 6.23409 12.7604 8.5837C11.3823 10.7674 8.80162 11.8941 6.61836 11.3962C5.24027 11.7194 3.81574 11.6233 2.59766 11.0294C3.33573 11.3919 3.96542 11.6583 4.65704 11.9029C7.34095 12.8549 10.7887 11.6059 12.6159 8.93308C14.443 6.26029 13.9939 3.10709 11.6765 1.61784C11.0778 1.23352 10.4945 0.910338 9.76163 0.547852C10.4894 0.905971 11.0726 1.40821 11.4958 2.00653C11.6094 2.07641 11.7178 2.14192 11.8313 2.21616V2.22053Z" fill="url(#paint2_radial_13318_480)"/>
<g style="mix-blend-mode:screen">
<path fill-rule="evenodd" clip-rule="evenodd" d="M10.1468 0.791458C12.7739 2.07545 13.3572 5.38587 11.4423 8.18968C9.52742 10.9935 5.84737 12.2207 3.22024 10.9367C0.593102 9.65273 0.00986761 6.34231 1.92473 3.5385C3.83444 0.734683 7.51965 -0.49253 10.1468 0.791458Z" fill="#FCCE3A"/>
</g>
<path fill-rule="evenodd" clip-rule="evenodd" d="M9.74896 0.547107C12.5258 1.90534 13.1761 5.35115 11.2045 8.24667C9.22766 11.1422 5.37729 12.3869 2.59531 11.033C-0.181502 9.67478 -0.831834 6.22897 1.13981 3.33345C3.11661 0.437924 6.96699 -0.806758 9.74896 0.547107Z" fill="url(#paint3_radial_13318_480)"/>
<g style="mix-blend-mode:screen">
<path fill-rule="evenodd" clip-rule="evenodd" d="M6.87988 10.0241C6.84375 10.1552 6.69923 10.2731 6.5031 10.3211C6.33278 10.3604 6.16761 10.3342 6.05406 10.26C5.22308 10.4259 4.38178 10.3779 3.6179 10.0765C1.414 9.20745 0.696567 6.5565 2.01788 4.15448C2.74047 2.84429 3.92242 1.87911 5.20244 1.41618C5.21276 1.26332 5.3676 1.11483 5.5947 1.06242C5.80116 1.01438 6.00761 1.06242 6.116 1.17597C6.4102 1.12793 6.70956 1.10173 6.99859 1.11046C7.06053 1.02312 7.20505 0.975078 7.35989 1.00128C7.48376 1.02312 7.58183 1.08863 7.62312 1.16724C7.89151 1.21091 8.15474 1.28516 8.40765 1.38561C10.6115 2.2547 11.329 4.90566 10.0077 7.30768C9.2954 8.59603 8.13926 9.55247 6.87988 10.0241Z" fill="#FFFCE4"/>
</g>
<path fill-rule="evenodd" clip-rule="evenodd" d="M8.79951 1.61715C10.8795 2.63037 11.3131 5.28569 9.76984 7.54796C8.22659 9.81022 5.29494 10.8191 3.21491 9.80149C1.13488 8.78827 0.701325 6.13295 2.24457 3.87068C3.78782 1.60842 6.71948 0.599568 8.79951 1.61715Z" fill="url(#paint4_radial_13318_480)"/>
<path style="mix-blend-mode:multiply" opacity="0.5" fill-rule="evenodd" clip-rule="evenodd" d="M3.38007 4.76682C4.84074 2.62684 7.61755 1.6704 9.58403 2.63121C9.86791 2.77096 10.1157 2.93692 10.3324 3.13345C10.0176 2.49146 9.50145 1.95864 8.7995 1.61363C6.71948 0.600412 3.78782 1.60926 2.24457 3.86716C0.701325 6.12942 1.13488 8.78475 3.21491 9.79796C3.36459 9.87221 3.51943 9.93335 3.67943 9.98576C2.26006 8.84152 2.08457 6.6535 3.38007 4.76246V4.76682Z" fill="url(#paint5_radial_13318_480)"/>
<path fill-rule="evenodd" clip-rule="evenodd" d="M2.93103 4.20539C4.34525 2.13529 6.92077 1.11334 8.93886 1.7335C9.0008 1.75533 9.0679 1.7728 9.12983 1.79901C9.07306 1.76407 9.02144 1.7335 8.96467 1.69856C8.91306 1.66799 8.85628 1.64178 8.7995 1.61558C6.71948 0.602365 3.78782 1.61121 2.24457 3.86911C0.701325 6.13138 1.13488 8.7867 3.21491 9.79992C3.27168 9.82612 3.32846 9.85232 3.38523 9.87853C3.44717 9.90473 3.50911 9.93093 3.57104 9.95277C3.51427 9.91783 3.46265 9.88289 3.41104 9.84359C1.76457 8.67315 1.52198 6.2755 2.9362 4.20539H2.93103Z" fill="url(#paint6_linear_13318_480)"/>
<path style="mix-blend-mode:multiply" fill-rule="evenodd" clip-rule="evenodd" d="M7.48852 1.55881C7.98917 1.53697 8.4795 1.59374 8.93886 1.7335C9.0008 1.75533 9.0679 1.7728 9.12983 1.79901C9.07306 1.76407 9.02144 1.7335 8.96467 1.69856C8.91306 1.66799 8.85628 1.64178 8.7995 1.61558C6.71948 0.602365 3.78782 1.61121 2.24457 3.86911C0.701325 6.13138 1.13488 8.7867 3.21491 9.79992C3.27168 9.82612 3.32846 9.85232 3.38523 9.87853C3.44717 9.90473 3.50911 9.93093 3.57104 9.95277C3.51427 9.91783 3.46265 9.88289 3.41104 9.84359C3.15813 9.66453 2.9362 9.4549 2.75039 9.21906C1.21746 8.1316 0.964555 5.89118 2.24457 3.95209C3.46266 2.10472 5.66656 1.14828 7.49368 1.55881H7.48852Z" fill="url(#paint7_radial_13318_480)"/>
<path style="mix-blend-mode:screen" fill-rule="evenodd" clip-rule="evenodd" d="M9.25829 2.60111C5.57823 1.1861 2.1356 5.24333 2.64142 7.86808C4.68016 7.22609 8.06601 5.81108 9.25829 2.60111Z" fill="url(#paint8_radial_13318_480)"/>
<defs>
<linearGradient id="paint0_linear_13318_480" x1="5.81835" y1="12.6046" x2="11.3316" y2="1.31738" gradientUnits="userSpaceOnUse">
<stop stop-color="#E86F0C"/>
<stop offset="0.69" stop-color="#FC940D"/>
<stop offset="1" stop-color="#E86F0C"/>
</linearGradient>
<radialGradient id="paint1_radial_13318_480" cx="0" cy="0" r="1" gradientUnits="userSpaceOnUse" gradientTransform="translate(8.43147 5.60489) scale(6.7201 5.68624)">
<stop stop-color="#FFF369"/>
<stop offset="0.11" stop-color="#FAEE67"/>
<stop offset="0.23" stop-color="#ECE161"/>
<stop offset="0.36" stop-color="#D6CC58"/>
<stop offset="0.5" stop-color="#B6AE4B"/>
<stop offset="0.64" stop-color="#8E873A"/>
<stop offset="0.78" stop-color="#5C5826"/>
<stop offset="0.92" stop-color="#22210E"/>
<stop offset="1"/>
</radialGradient>
<radialGradient id="paint2_radial_13318_480" cx="0" cy="0" r="1" gradientUnits="userSpaceOnUse" gradientTransform="translate(4.90995 5.2165) scale(9.74982 8.24985)">
<stop offset="0.51" stop-color="white"/>
<stop offset="0.68" stop-color="#E5DCC2"/>
<stop offset="1" stop-color="#B09444"/>
</radialGradient>
<radialGradient id="paint3_radial_13318_480" cx="0" cy="0" r="1" gradientUnits="userSpaceOnUse" gradientTransform="translate(3.60694 0.333109) scale(12.5008 10.5776)">
<stop stop-color="#FCF80D"/>
<stop offset="1" stop-color="#FC9C0D"/>
</radialGradient>
<radialGradient id="paint4_radial_13318_480" cx="0" cy="0" r="1" gradientUnits="userSpaceOnUse" gradientTransform="translate(0.00970163 -0.714993) scale(15.2776 12.9272)">
<stop stop-color="#FCF80D"/>
<stop offset="1" stop-color="#F78A0C"/>
</radialGradient>
<radialGradient id="paint5_radial_13318_480" cx="0" cy="0" r="1" gradientUnits="userSpaceOnUse" gradientTransform="translate(8.53111 6.69281) scale(8.82593 7.4681)">
<stop offset="0.51" stop-color="white"/>
<stop offset="0.69" stop-color="#FFE1C2"/>
<stop offset="1" stop-color="#FFA84B"/>
</radialGradient>
<linearGradient id="paint6_linear_13318_480" x1="1.5065" y1="8.96576" x2="5.747" y2="0.287304" gradientUnits="userSpaceOnUse">
<stop stop-color="#FC940D"/>
<stop offset="1" stop-color="#E86F0C"/>
</linearGradient>
<radialGradient id="paint7_radial_13318_480" cx="0" cy="0" r="1" gradientUnits="userSpaceOnUse" gradientTransform="translate(8.69112 7.00921) scale(8.55754 7.241)">
<stop offset="0.51" stop-color="white"/>
<stop offset="0.68" stop-color="#E5DCC2"/>
<stop offset="1" stop-color="#B09444"/>
</radialGradient>
<radialGradient id="paint8_radial_13318_480" cx="0" cy="0" r="1" gradientUnits="userSpaceOnUse" gradientTransform="translate(-0.290238 -0.569558) scale(11.3756 9.62555)">
<stop stop-color="#FFF369"/>
<stop offset="0.11" stop-color="#FAEE67"/>
<stop offset="0.23" stop-color="#ECE161"/>
<stop offset="0.36" stop-color="#D6CC58"/>
<stop offset="0.5" stop-color="#B6AE4B"/>
<stop offset="0.64" stop-color="#8E873A"/>
<stop offset="0.78" stop-color="#5C5826"/>
<stop offset="0.92" stop-color="#22210E"/>
<stop offset="1"/>
</radialGradient>
</defs>
</svg>
