<svg width="32" height="30" viewBox="0 0 32 30" fill="none" xmlns="http://www.w3.org/2000/svg">
<path d="M7.1168 1.08118e-07C6.18216 -0.000157529 5.25665 0.172311 4.39312 0.507555C3.52959 0.842798 2.74498 1.33425 2.08409 1.95383C1.4232 2.57342 0.898985 3.30899 0.541392 4.11855C0.183799 4.92811 -0.000167685 5.79578 4.60474e-07 6.672V23.3256C-0.000335801 24.202 0.183498 25.0698 0.541 25.8796C0.898502 26.6894 1.42267 27.4252 2.08356 28.045C2.74445 28.6648 3.52911 29.1564 4.39273 29.4919C5.25634 29.8273 6.18199 30 7.1168 30H24.8832C25.8181 30 26.7439 29.8273 27.6076 29.4918C28.4713 29.1563 29.256 28.6645 29.9169 28.0445C30.5778 27.4246 31.1019 26.6887 31.4594 25.8788C31.8168 25.0689 32.0005 24.2009 32 23.3244V6.6744C32.0005 5.79797 31.8168 4.93005 31.4593 4.12021C31.1019 3.31038 30.5777 2.57452 29.9168 1.95468C29.2559 1.33484 28.4712 0.843178 27.6075 0.507784C26.7438 0.172391 25.8181 -0.000157678 24.8832 1.08118e-07H7.1168ZM7.1168 1.152H24.8832C25.6574 1.14882 26.4245 1.28943 27.1404 1.56572C27.8563 1.842 28.5068 2.24848 29.0542 2.76169C29.6016 3.2749 30.0352 3.88468 30.3299 4.55584C30.6246 5.22699 30.7746 5.94621 30.7712 6.672V23.3256C30.7746 24.0514 30.6246 24.7706 30.3299 25.4418C30.0352 26.1129 29.6016 26.7227 29.0542 27.2359C28.5068 27.7491 27.8563 28.1556 27.1404 28.4319C26.4245 28.7082 25.6574 28.8488 24.8832 28.8456H7.1168C6.34263 28.8488 5.57545 28.7082 4.85956 28.4319C4.14366 28.1556 3.49323 27.7491 2.9458 27.2359C2.39837 26.7227 1.9648 26.1129 1.6701 25.4418C1.3754 24.7706 1.22541 24.0514 1.2288 23.3256V6.672C1.22541 5.94621 1.3754 5.22699 1.6701 4.55584C1.9648 3.88468 2.39837 3.2749 2.9458 2.76169C3.49323 2.24848 4.14366 1.842 4.85956 1.56572C5.57545 1.28943 6.34263 1.14882 7.1168 1.152ZM9.5488 9.6C9.40937 9.60607 9.27588 9.6547 9.16866 9.73849C9.06145 9.82228 8.98639 9.93663 8.95493 10.0641C8.92347 10.1916 8.93733 10.3252 8.9944 10.4447C9.05147 10.5641 9.14862 10.6627 9.27104 10.7256C9.2736 10.7256 9.27616 10.7256 9.27872 10.7256L14.1235 15.2676V20.3952C14.124 20.5061 14.1573 20.6148 14.2196 20.709C14.282 20.8033 14.371 20.8795 14.4768 20.9292L17.0086 22.1292C17.1062 22.1758 17.2148 22.1981 17.3242 22.1941C17.4335 22.1901 17.54 22.1599 17.6333 22.1063C17.7267 22.0528 17.8038 21.9777 17.8574 21.8882C17.9109 21.7987 17.9391 21.6978 17.9392 21.5952V15.2412L22.8288 10.6596C22.8944 10.6089 22.9487 10.5464 22.9883 10.4759C23.0279 10.4053 23.0521 10.3281 23.0595 10.2486C23.0669 10.1692 23.0573 10.0892 23.0313 10.0132C23.0053 9.9373 22.9635 9.86699 22.9082 9.8064C22.9077 9.8064 22.9086 9.8064 22.9082 9.8064C22.8528 9.7466 22.7841 9.69766 22.7085 9.6624C22.7076 9.6624 22.7068 9.6624 22.7059 9.6624C22.6879 9.65481 22.6695 9.648 22.6509 9.642C22.6492 9.64199 22.6475 9.64199 22.6458 9.642C22.6277 9.63522 22.6093 9.62921 22.5907 9.624C22.5894 9.624 22.5882 9.624 22.5869 9.624C22.5679 9.61917 22.5487 9.61517 22.5293 9.612C22.5276 9.61199 22.5259 9.61199 22.5242 9.612C22.5026 9.60694 22.4808 9.60294 22.4589 9.6C22.4388 9.59912 22.4188 9.59912 22.3987 9.6C22.3881 9.59975 22.3774 9.59975 22.3667 9.6H9.68192C9.66017 9.59896 9.63839 9.59896 9.61664 9.6C9.59532 9.599 9.57396 9.599 9.55264 9.6C9.55136 9.6 9.55008 9.6 9.5488 9.6ZM11.1642 10.8024H20.8717L16.9139 14.5128C16.8172 14.6002 16.7522 14.714 16.7283 14.838C16.6807 14.926 16.6569 15.0237 16.6592 15.1224V20.6268L15.4048 20.0316V15.126C15.4058 15.0016 15.3655 14.88 15.2896 14.778C15.2589 14.6773 15.2007 14.5859 15.1206 14.5128L11.1629 10.8024H11.1642Z" fill="#A7A7A7"/>
</svg>
